<svg width="21" height="20" viewBox="0 0 21 20" fill="none" xmlns="http://www.w3.org/2000/svg">
<path opacity="0.4" fill-rule="evenodd" clip-rule="evenodd" d="M3.91058 18.0885C3.91058 17.2485 4.59058 16.5685 5.43058 16.5685C6.26058 16.5685 6.94058 17.2485 6.94058 18.0885C6.94058 18.9185 6.26058 19.5985 5.43058 19.5985C4.59058 19.5985 3.91058 18.9185 3.91058 18.0885ZM15.1606 18.0885C15.1606 17.2485 15.8406 16.5685 16.6806 16.5685C17.5106 16.5685 18.1906 17.2485 18.1906 18.0885C18.1906 18.9185 17.5106 19.5985 16.6806 19.5985C15.8406 19.5985 15.1606 18.9185 15.1606 18.0885Z" fill="#959895"/>
<path fill-rule="evenodd" clip-rule="evenodd" d="M18.1908 3.84903C18.8008 3.84903 19.2008 4.05903 19.6008 4.51903C20.0008 4.97903 20.0708 5.63903 19.9808 6.23803L19.0308 12.798C18.8508 14.059 17.7708 14.988 16.5008 14.988H5.5908C4.2608 14.988 3.1608 13.968 3.0508 12.649L2.1308 1.74803L0.620803 1.48803C0.220803 1.41803 -0.0591968 1.02803 0.0108032 0.628025C0.0808032 0.218025 0.470803 -0.0519747 0.880803 0.00802531L3.2658 0.368025C3.6058 0.429025 3.8558 0.708025 3.8858 1.04803L4.0758 3.28803C4.1058 3.60903 4.3658 3.84903 4.6858 3.84903H18.1908ZM12.1308 9.04803H14.9008C15.3208 9.04803 15.6508 8.70802 15.6508 8.29803C15.6508 7.87803 15.3208 7.54803 14.9008 7.54803H12.1308C11.7108 7.54803 11.3808 7.87803 11.3808 8.29803C11.3808 8.70802 11.7108 9.04803 12.1308 9.04803Z" fill="#959895"/>
</svg>
