<svg width="20" height="19" viewBox="0 0 20 19" fill="none" xmlns="http://www.w3.org/2000/svg">
<path opacity="0.4" d="M19.9999 13.4402C19.9999 16.2302 17.7599 18.4902 14.9699 18.5002H14.9599H5.04988C2.26988 18.5002 -0.00012207 16.2502 -0.00012207 13.4602V13.4502C-0.00012207 13.4502 0.00587793 9.02418 0.0138779 6.79818C0.0148779 6.38018 0.494878 6.14618 0.821878 6.40618C3.19788 8.29118 7.44688 11.7282 7.49988 11.7732C8.20988 12.3422 9.10988 12.6632 10.0299 12.6632C10.9499 12.6632 11.8499 12.3422 12.5599 11.7622C12.6129 11.7272 16.7669 8.39318 19.1789 6.47718C19.5069 6.21618 19.9889 6.45018 19.9899 6.86718C19.9999 9.07618 19.9999 13.4402 19.9999 13.4402Z" fill="#959895"/>
<path d="M19.476 3.17357C18.61 1.54157 16.906 0.499573 15.03 0.499573H5.05001C3.17401 0.499573 1.47001 1.54157 0.604006 3.17357C0.410006 3.53857 0.502006 3.99357 0.825006 4.25157L8.25001 10.1906C8.77001 10.6106 9.40001 10.8196 10.03 10.8196C10.034 10.8196 10.037 10.8196 10.04 10.8196C10.043 10.8196 10.047 10.8196 10.05 10.8196C10.68 10.8196 11.31 10.6106 11.83 10.1906L19.255 4.25157C19.578 3.99357 19.67 3.53857 19.476 3.17357Z" fill="#959895"/>
</svg>
